<?xml version="1.0" encoding="iso-8859-1"?>
<!-- Generator: Adobe Illustrator 19.0.0, SVG Export Plug-In . SVG Version: 6.00 Build 0)  -->
<svg version="1.1" id="Layer_1" xmlns="http://www.w3.org/2000/svg" xmlns:xlink="http://www.w3.org/1999/xlink" x="0px" y="0px"
	 viewBox="0 0 512 512" style="enable-background:new 0 0 512 512;" xml:space="preserve">
<g>
	<g>
		<path d="M199.772,57.579h-17.198h-43.952h-17.624c-11.752,0-21.312-9.4-21.312-20.953c0-11.553,9.561-20.952,21.312-20.952h21.014
			c4.329,0,7.837-3.508,7.837-7.837c0-4.329-3.508-7.837-7.837-7.837h-21.014c-20.394,0.001-36.986,16.432-36.986,36.627
			c0,20.196,16.592,36.626,36.986,36.626h17.624h43.952h17.198c8.624,0,15.639,6.886,15.639,15.349
			c0,8.465-7.015,15.351-15.639,15.351h-19.908c-4.329,0-7.837,3.508-7.837,7.837c0,4.329,3.508,7.837,7.837,7.837h19.908
			c17.265,0,31.312-13.917,31.312-31.024C231.084,71.495,217.038,57.579,199.772,57.579z"/>
	</g>
</g>
<g>
	<g>
		<path d="M184.041,152.194h-63.61c-9.144,0-16.584-7.305-16.584-16.284c0-8.978,7.44-16.284,16.584-16.284h17.609
			c4.329,0,7.837-3.508,7.837-7.837c0-4.329-3.508-7.837-7.837-7.837h-17.609c-17.786,0-32.257,14.336-32.257,31.957
			c0,17.621,14.471,31.957,32.257,31.957h63.61c4.329,0,7.837-3.508,7.837-7.837C191.878,155.701,188.37,152.194,184.041,152.194z"
			/>
	</g>
</g>
<g>
	<g>
		<path d="M325.488,310.858h-28.212c-4.329,0-7.837,3.508-7.837,7.837c0,4.329,3.508,7.837,7.837,7.837h28.212
			c4.328,0,7.837-3.508,7.837-7.837C333.325,314.366,329.816,310.858,325.488,310.858z"/>
	</g>
</g>
<g>
	<g>
		<path d="M331.533,338.026h-40.302c-4.329,0-7.837,3.508-7.837,7.837c0,4.329,3.508,7.837,7.837,7.837h40.302
			c4.329,0,7.837-3.508,7.837-7.837C339.369,341.533,335.862,338.026,331.533,338.026z"/>
	</g>
</g>
<g>
	<g>
		<path d="M437.969,189.227h-10.108l-17.153-42.103c-3.382-8.298-12.688-14.555-21.649-14.555h-155.35
			c-8.96,0-18.266,6.257-21.649,14.556l-17.155,42.102h-10.108c-10.082,0-18.286,8.203-18.286,18.286v13.902h-50.961
			c-8.771,0-18.24,5.966-22.029,13.879c0,0-18.645,38.982-18.674,39.045h-0.815c-10.082,0-18.286,8.203-18.286,18.286v14.048
			c0,9.529,7.331,17.37,16.648,18.203l5.971,41c-3.933,2.254-6.594,6.485-6.594,11.333v55.38c0,7.203,5.859,13.061,13.061,13.061
			h5.147l7.18,49.302c1.39,9.56,10.046,17.049,19.708,17.049h258.633c9.588,0,18.319-7.411,19.879-16.874l10.179-61.854
			c3.426-2.06,5.969-5.531,6.682-9.627l19.193-110.221c0.631-3.635-0.327-7.287-2.628-10.023c-0.487-0.579-1.034-1.093-1.614-1.564
			l7.997-48.591h2.783c10.082,0,18.286-8.203,18.286-18.286v-27.449C456.255,197.429,448.052,189.227,437.969,189.227z
			 M107.658,242.061c1.18-2.463,5.161-4.973,7.891-4.973h51.096c1.06,9.082,8.789,16.158,18.151,16.158h2.783l3.471,21.093H92.214
			L107.658,242.061z M116.866,496.328c-1.853,0-3.932-1.798-4.198-3.633l-6.85-47.044h26.035c7.202,0,13.061-5.859,13.061-13.061
			v-13.588c0-4.329-3.508-7.837-7.837-7.837c-4.329,0-7.837,3.508-7.837,7.837v10.976H87.443v-50.155h13.061v8.882
			c0,4.329,3.508,7.837,7.837,7.837c4.329,0,7.837-3.508,7.837-7.837v-8.882h13.061v7.837c0,4.329,3.508,7.837,7.837,7.837
			c4.329,0,7.837-3.508,7.837-7.837v-10.449c0-7.203-5.859-13.061-13.061-13.061h-15.673v-39.189h17.569
			c4.329,0,7.837-3.508,7.837-7.837c0-4.329-3.508-7.837-7.837-7.837H74.031c-1.416,0-2.612-1.196-2.612-2.612v-14.048
			c0-1.416,1.196-2.612,2.612-2.612H193.63l1.946,11.824c-0.58,0.471-1.127,0.985-1.614,1.564c-1.418,1.685-2.321,3.721-2.661,5.884
			h-23.071c-4.329,0-7.837,3.508-7.837,7.837s3.508,7.837,7.837,7.837h25.114l17.182,98.684c0.713,4.098,3.256,7.568,6.681,9.629
			c0,0,10.344,62.657,10.438,63.055H116.866z M88.243,324.959h12.261v39.189H93.95L88.243,324.959z M384.728,463.312H356.31
			c-4.329,0-7.837,3.508-7.837,7.837c0,4.329,3.508,7.837,7.837,7.837h25.838l-2.237,13.594c-0.311,1.892-2.498,3.748-4.415,3.748
			H247.268c-1.916,0-4.103-1.856-4.415-3.746l-2.238-13.596h81.213c4.329,0,7.837-3.508,7.837-7.837
			c0-4.329-3.508-7.837-7.837-7.837h-83.791l-4.613-28.026h155.92L384.728,463.312z M397.032,419.612H225.733l-18.255-104.84h42.605
			c-2.244,6.491-3.48,13.439-3.48,20.672c0,35.332,29.061,64.076,64.779,64.076c35.719,0,64.777-28.745,64.777-64.076
			c0-7.233-1.236-14.181-3.479-20.672h42.605L397.032,419.612z M262.278,335.445c0-26.69,22.029-48.403,49.106-48.403
			c27.076,0,49.104,21.713,49.104,48.403s-22.027,48.403-49.104,48.403C284.306,383.847,262.278,362.134,262.278,335.445z
			 M411.757,299.099h-47.065c-11.699-16.737-31.226-27.731-53.308-27.731c-22.083,0-41.61,10.993-53.31,27.731h-47.065
			l-7.547-45.852h215.84L411.757,299.099z M440.581,234.961c0,1.416-1.196,2.612-2.612,2.612H184.795
			c-1.416,0-2.612-1.196-2.612-2.612v-27.45c0-1.416,1.196-2.612,2.612-2.612h157.931c4.329,0,7.837-3.508,7.837-7.837
			c0-4.329-3.508-7.837-7.837-7.837H211.829l14.745-36.187c0.969-2.376,4.569-4.798,7.135-4.798h155.351
			c2.565,0,6.166,2.421,7.135,4.797l14.743,36.188h-34.774c-4.329,0-7.837,3.508-7.837,7.837c0,4.329,3.508,7.837,7.837,7.837
			h61.806c1.416,0,2.612,1.196,2.612,2.612V234.961z"/>
	</g>
</g>
<g>
	<g>
		<path d="M253.086,158.01h-13.558c-4.329,0-7.837,3.508-7.837,7.837c0,4.329,3.508,7.837,7.837,7.837h13.558
			c4.329,0,7.837-3.508,7.837-7.837C260.923,161.518,257.415,158.01,253.086,158.01z"/>
	</g>
</g>
<g>
</g>
<g>
</g>
<g>
</g>
<g>
</g>
<g>
</g>
<g>
</g>
<g>
</g>
<g>
</g>
<g>
</g>
<g>
</g>
<g>
</g>
<g>
</g>
<g>
</g>
<g>
</g>
<g>
</g>
</svg>
